<?xml version="1.0" encoding="UTF-8"?>
<svg width="8px" height="10px" viewBox="0 0 8 10" version="1.1" xmlns="http://www.w3.org/2000/svg" xmlns:xlink="http://www.w3.org/1999/xlink">
    <title>bell</title>
    <g id="Page-1" stroke="none" stroke-width="1" fill="none" fill-rule="evenodd">
        <g id="Profile-settings---Career" transform="translate(-1194.000000, -31.000000)" fill="#FFFFFF">
            <path d="M1201.05778,37.5866667 L1201.05778,35 C1201.05778,33.5555556 1200.05778,32.3466667 1198.70667,32.0266667 L1198.70667,31.7066667 C1198.70667,31.3155556 1198.39111,31 1198,31 C1197.60889,31 1197.29333,31.3155556 1197.29333,31.7066667 L1197.29333,32.0266667 C1195.94222,32.3466667 1194.94222,33.5555556 1194.94222,35 L1194.94222,37.5866667 L1194,38.5288889 L1194,39 L1202,39 L1202,38.5288889 L1201.05778,37.5866667 Z M1197,40 L1199,40 C1199,40.5527638 1198.55276,41 1198,41 C1197.44724,41 1197,40.5527638 1197,40 L1197,40 Z" id="bell"></path>
        </g>
    </g>
</svg>