<svg xmlns="http://www.w3.org/2000/svg" width="64" height="15" viewBox="0 0 64 15">
    <g fill="none" fill-rule="evenodd">
        <g fill="#24BF49" fill-rule="nonzero">
            <path d="M34.261 41c.483 0 .992-.027 1.528-.08.536-.053.985-.12 1.347-.2v-1.777c-.912.12-1.695.18-2.352.18-.804 0-1.384-.084-1.739-.25-.355-.167-.593-.476-.713-.929-.12-.453-.181-1.185-.181-2.197 0-.985.057-1.704.17-2.157.115-.453.349-.77.704-.949.355-.18.928-.27 1.719-.27.844 0 1.614.067 2.311.2v-1.777c-.348-.094-.79-.167-1.326-.22-.536-.053-1.046-.08-1.528-.08-1.193 0-2.09.19-2.693.57-.603.379-1.005.931-1.206 1.657-.201.726-.302 1.728-.302 3.006 0 1.358.087 2.39.261 3.096.175.706.563 1.245 1.166 1.618s1.548.559 2.834.559zm9.77 0c.642 0 1.306-.027 1.99-.08.683-.053 1.245-.126 1.688-.22v-1.757c-1.233.133-2.292.2-3.176.2-1.005 0-1.719-.067-2.141-.2-.422-.133-.69-.37-.804-.71-.114-.339-.17-.915-.17-1.727h6.693v-.739c0-1.425-.077-2.48-.232-3.166-.154-.686-.529-1.208-1.125-1.568-.597-.36-1.551-.539-2.865-.539-1.366 0-2.378.18-3.035.54-.656.359-1.085.898-1.286 1.617-.201.72-.302 1.758-.302 3.116 0 1.425.1 2.49.302 3.196.2.705.636 1.221 1.306 1.548.67.326 1.722.489 3.156.489zm2.05-6.032h-4.664c.013-.772.074-1.332.181-1.678.107-.346.325-.589.653-.729.329-.14.855-.21 1.578-.21.63 0 1.096.06 1.397.18.302.12.52.36.653.72.134.359.201.918.201 1.677v.04zm6.954 5.872v-5.253c0-.785.05-1.388.15-1.807.101-.42.323-.736.664-.95.342-.212.861-.319 1.558-.319.697 0 1.186.057 1.467.17.282.113.47.36.563.74.094.379.14 1.028.14 1.947v5.472h2.132V34.49c0-.959-.084-1.718-.252-2.277-.167-.56-.492-.982-.975-1.269-.482-.286-1.199-.429-2.15-.429-.871 0-1.555.113-2.05.34-.496.226-.865.572-1.106 1.038h-.14V26h-2.131v14.84h2.13zm14.231.16c.644 0 1.307-.027 1.99-.08.684-.053 1.247-.126 1.689-.22v-1.757c-1.233.133-2.292.2-3.176.2-1.005 0-1.719-.067-2.14-.2-.423-.133-.691-.37-.805-.71-.114-.339-.17-.915-.17-1.727h6.693v-.739c0-1.425-.077-2.48-.231-3.166-.155-.686-.53-1.208-1.126-1.568-.596-.36-1.551-.539-2.864-.539-1.367 0-2.379.18-3.036.54-.656.359-1.085.898-1.286 1.617-.201.72-.301 1.758-.301 3.116 0 1.425.1 2.49.301 3.196.201.705.637 1.221 1.307 1.548.67.326 1.721.489 3.155.489zm2.05-6.032h-4.663c.014-.772.074-1.332.181-1.678.107-.346.325-.589.653-.729.329-.14.855-.21 1.578-.21.63 0 1.096.06 1.397.18.302.12.52.36.654.72.134.359.2.918.2 1.677v.04zM78.504 41c.643 0 1.306-.027 1.99-.08.683-.053 1.246-.126 1.688-.22v-1.757c-1.233.133-2.292.2-3.176.2-1.005 0-1.719-.067-2.14-.2-.423-.133-.69-.37-.805-.71-.114-.339-.17-.915-.17-1.727h6.693v-.739c0-1.425-.077-2.48-.231-3.166-.154-.686-.53-1.208-1.126-1.568-.596-.36-1.551-.539-2.864-.539-1.367 0-2.379.18-3.035.54-.657.359-1.086.898-1.287 1.617-.2.72-.301 1.758-.301 3.116 0 1.425.1 2.49.301 3.196.201.705.637 1.221 1.307 1.548.67.326 1.722.489 3.156.489zm2.05-6.032h-4.664c.014-.772.074-1.332.181-1.678.108-.346.325-.589.654-.729.328-.14.854-.21 1.578-.21.63 0 1.095.06 1.396.18.302.12.52.36.654.72.134.359.2.918.2 1.677v.04zM88.633 41c.75 0 1.404-.103 1.96-.31.556-.206.975-.595 1.256-1.168h.12l.081 1.318H94V26h-2.13v5.832h-.121c-.282-.506-.684-.855-1.206-1.048-.523-.193-1.18-.29-1.97-.29-.925 0-1.642.16-2.15.48-.51.319-.879.855-1.106 1.607-.228.753-.342 1.814-.342 3.186 0 1.371.114 2.43.342 3.176.227.745.603 1.275 1.125 1.588.523.313 1.253.469 2.191.469zm.885-1.997c-.75 0-1.283-.07-1.598-.21-.315-.14-.526-.426-.634-.859-.107-.433-.16-1.162-.16-2.187 0-1.012.053-1.734.16-2.167.108-.433.315-.72.624-.859.308-.14.837-.21 1.587-.21.59 0 1.052.077 1.387.23.335.153.577.39.724.71.107.239.178.532.211.878.034.346.05.812.05 1.398 0 .6-.016 1.079-.05 1.438-.033.36-.11.666-.231.919-.147.32-.385.552-.714.699-.328.146-.78.22-1.356.22z" transform="translate(-30 -26)"/>
        </g>
    </g>
</svg>
